<svg width="88" height="57" viewBox="0 0 88 57" fill="none" xmlns="http://www.w3.org/2000/svg">
<path d="M69.7057 19.4301C69.5559 19.2368 69.3572 19.0791 69.1263 18.9701C68.8953 18.8612 68.639 18.8043 68.3788 18.8041H33.7178L31.0941 10.5856C30.0652 7.34936 27.6203 7 26.6175 7H19.6218C18.7251 7 18 7.65941 18 8.4731C18 9.2868 18.7259 9.94616 19.6217 9.94616H26.6167C26.838 9.94616 27.5133 9.94616 27.9739 11.3918L36.9997 41.5222C37.1956 42.1579 37.8334 42.5969 38.5609 42.5969H60.6072C61.2916 42.5969 61.9023 42.2075 62.1335 41.6223L69.9041 20.7756C70.083 20.3239 70.0086 19.821 69.7057 19.4301ZM59.4659 39.6516H39.7919L34.6294 21.7511H66.073L59.4659 39.6516ZM56.2494 45.5826C53.994 45.5826 52.1665 47.2426 52.1665 49.2913C52.1665 51.34 53.994 53 56.2494 53C58.5048 53 60.3324 51.34 60.3324 49.2913C60.3324 47.2426 58.5048 45.5826 56.2494 45.5826ZM41.5508 45.5826C39.2954 45.5826 37.4679 47.2426 37.4679 49.2913C37.4679 51.34 39.2954 53 41.5508 53C43.8062 53 45.6338 51.34 45.6338 49.2913C45.6338 47.2426 43.8062 45.5826 41.5508 45.5826Z" fill="black"/>
</svg>
